<svg width="10000" height="10000" viewBox="0 0 10000 10000" fill="none" xmlns="http://www.w3.org/2000/svg">
<g clip-path="url(#clip0_2117_608)">
<path d="M4297.28 0L10000 5702.71V5726.27L4273.71 0H4297.28Z" fill="#9FE6DD"/>
<path d="M4773.43 0L10000 5226.55V5250.11L4749.87 0H4773.43Z" fill="#9FE6DD"/>
<path d="M5249.61 0L10000 4750.39V4773.95L5226.05 0H5249.61Z" fill="#9FE6DD"/>
<path d="M5725.77 0L10000 4274.21V4297.78L5702.2 0H5725.77Z" fill="#9FE6DD"/>
<path d="M6201.95 0L10000 3798.05V3821.61L6178.37 0H6201.95Z" fill="#9FE6DD"/>
<path d="M6678.11 0L10000 3321.89V3345.45L6654.55 0H6678.11Z" fill="#9FE6DD"/>
<path d="M7154.27 0L10000 2845.71V2869.29L7130.7 0H7154.27Z" fill="#9FE6DD"/>
<path d="M7630.45 0L10000 2369.55V2393.12L7606.88 0H7630.45Z" fill="#9FE6DD"/>
<path d="M8106.61 0L10000 1893.39V1916.95L8083.05 0H8106.61Z" fill="#9FE6DD"/>
<path d="M8582.77 0L10000 1417.21V1440.79L8559.2 0H8582.77Z" fill="#9FE6DD"/>
<path d="M9058.95 0L10000 941.052V964.616L9035.37 0H9058.95Z" fill="#9FE6DD"/>
<path d="M9535.11 0L10000 464.891V488.455L9511.55 0H9535.11Z" fill="#9FE6DD"/>
<path d="M10000 0V12.2943L9987.7 0H10000Z" fill="#9FE6DD"/>
<path d="M3821.11 0L10000 6178.89V6202.45L3797.55 0H3821.11Z" fill="#9FE6DD"/>
<path d="M3344.95 0L10000 6655.05V6678.61L3321.37 0H3344.95Z" fill="#9FE6DD"/>
<path d="M2868.79 0L10000 7131.21V7154.77L2845.21 0H2868.79Z" fill="#9FE6DD"/>
<path d="M2392.61 0L10000 7607.37V7630.95L2369.05 0H2392.61Z" fill="#9FE6DD"/>
<path d="M1916.43 0L10000 8083.55V8107.11L1892.87 0H1916.43Z" fill="#9FE6DD"/>
<path d="M1440.28 0L10000 8559.71V8583.27L1416.71 0H1440.28Z" fill="#9FE6DD"/>
<path d="M964.111 0L10000 9035.87V9059.43L940.547 0H964.111Z" fill="#9FE6DD"/>
<path d="M487.955 0L10000 9512.05V9535.61L464.391 0H487.955Z" fill="#9FE6DD"/>
<path d="M10000 10000H9988.21L0 11.7907V0H11.7907L10000 9988.21V10000Z" fill="#9FE6DD"/>
<path d="M9512.05 10000L0 487.955V464.391L9535.61 10000H9512.05Z" fill="#9FE6DD"/>
<path d="M9035.89 10000L0 964.111V940.547L9059.45 10000H9035.89Z" fill="#9FE6DD"/>
<path d="M8559.71 10000L0 1440.28V1416.71L8583.27 10000H8559.71Z" fill="#9FE6DD"/>
<path d="M8083.55 10000L0 1916.45V1892.89L8107.11 10000H8083.55Z" fill="#9FE6DD"/>
<path d="M7607.37 10000L0 2392.61V2369.05L7630.95 10000H7607.37Z" fill="#9FE6DD"/>
<path d="M7131.21 10000L0 2868.79V2845.21L7154.77 10000H7131.21Z" fill="#9FE6DD"/>
<path d="M6655.05 10000L0 3344.95V3321.38L6678.61 10000H6655.05Z" fill="#9FE6DD"/>
<path d="M6178.89 10000L0 3821.11V3797.55L6202.45 10000H6178.89Z" fill="#9FE6DD"/>
<path d="M5702.71 10000L0 4297.28V4273.71L5726.29 10000H5702.71Z" fill="#9FE6DD"/>
<path d="M5226.55 10000L0 4773.45V4749.87L5250.11 10000H5226.55Z" fill="#9FE6DD"/>
<path d="M4750.39 10000L0 5249.61V5226.05L4773.95 10000H4750.39Z" fill="#9FE6DD"/>
<path d="M4274.21 10000L0 5725.77V5702.2L4297.79 10000H4274.21Z" fill="#9FE6DD"/>
<path d="M3798.05 10000L0 6201.95V6178.38L3821.61 10000H3798.05Z" fill="#9FE6DD"/>
<path d="M3321.89 10000L0 6678.11V6654.55L3345.45 10000H3321.89Z" fill="#9FE6DD"/>
<path d="M2845.73 10000L0 7154.27V7130.7L2869.29 10000H2845.73Z" fill="#9FE6DD"/>
<path d="M2369.55 10000L0 7630.45V7606.88L2393.12 10000H2369.55Z" fill="#9FE6DD"/>
<path d="M1893.39 10000L0 8106.61V8083.05L1916.95 10000H1893.39Z" fill="#9FE6DD"/>
<path d="M1417.21 10000L0 8582.77V8559.2L1440.79 10000H1417.21Z" fill="#9FE6DD"/>
<path d="M941.052 10000L0 9058.95V9035.37L964.616 10000H941.052Z" fill="#9FE6DD"/>
<path d="M464.891 10000L0 9535.11V9511.55L488.455 10000H464.891Z" fill="#9FE6DD"/>
<path d="M0 10000V9987.7L12.2943 10000H0Z" fill="#9FE6DD"/>
<path d="M4538.94 0L10000 5461.04V5484.61L4515.38 0H4538.94Z" fill="#9FE6DD"/>
<path d="M5015.11 0L10000 4984.88V5008.45L4991.53 0H5015.11Z" fill="#9FE6DD"/>
<path d="M5491.28 0L10000 4508.72V4532.29L5467.71 0H5491.28Z" fill="#9FE6DD"/>
<path d="M5967.44 0L10000 4032.55V4056.11L5943.88 0H5967.44Z" fill="#9FE6DD"/>
<path d="M6443.61 0L10000 3556.38V3579.95L6420.03 0H6443.61Z" fill="#9FE6DD"/>
<path d="M6919.77 0L10000 3080.22V3103.79L6896.21 0H6919.77Z" fill="#9FE6DD"/>
<path d="M7395.94 0L10000 2604.05V2627.61L7372.38 0H7395.94Z" fill="#9FE6DD"/>
<path d="M7872.11 0L10000 2127.89V2151.45L7848.55 0H7872.11Z" fill="#9FE6DD"/>
<path d="M8348.28 0L10000 1651.72V1675.29L8324.71 0H8348.28Z" fill="#9FE6DD"/>
<path d="M8824.44 0L10000 1175.55V1199.13L8800.88 0H8824.44Z" fill="#9FE6DD"/>
<path d="M9300.61 0L10000 699.385V722.949L9277.03 0H9300.61Z" fill="#9FE6DD"/>
<path d="M9776.78 0L10000 223.225V246.789L9753.21 0H9776.78Z" fill="#9FE6DD"/>
<path d="M4062.77 0L10000 5937.22V5960.79L4039.21 0H4062.77Z" fill="#9FE6DD"/>
<path d="M3586.62 0L10000 6413.38V6436.95L3563.04 0H3586.62Z" fill="#9FE6DD"/>
<path d="M3110.44 0L10000 6889.54V6913.11L3086.88 0H3110.44Z" fill="#9FE6DD"/>
<path d="M2634.28 0L10000 7365.71V7389.29L2610.71 0H2634.28Z" fill="#9FE6DD"/>
<path d="M2158.12 0L10000 7841.87V7865.45L2134.54 0H2158.12Z" fill="#9FE6DD"/>
<path d="M1681.96 0L10000 8318.04V8341.61L1658.38 0H1681.96Z" fill="#9FE6DD"/>
<path d="M1205.78 0L10000 8794.22V8817.79L1182.21 0H1205.78Z" fill="#9FE6DD"/>
<path d="M729.619 0L10000 9270.38V9293.95L706.055 0H729.619Z" fill="#9FE6DD"/>
<path d="M253.456 0L10000 9746.54V9770.11L229.875 0H253.456Z" fill="#9FE6DD"/>
<path d="M9753.71 10000L0 246.283V222.719L9777.28 10000H9753.71Z" fill="#9FE6DD"/>
<path d="M9277.55 10000L0 722.447V698.883L9301.12 10000H9277.55Z" fill="#9FE6DD"/>
<path d="M8801.38 10000L0 1198.6V1175.04L8824.94 10000H8801.38Z" fill="#9FE6DD"/>
<path d="M8325.21 10000L0 1674.78V1651.22L8348.78 10000H8325.21Z" fill="#9FE6DD"/>
<path d="M7849.05 10000L0 2150.95V2127.38L7872.62 10000H7849.05Z" fill="#9FE6DD"/>
<path d="M7372.88 10000L0 2627.1V2603.54L7396.44 10000H7372.88Z" fill="#9FE6DD"/>
<path d="M6896.72 10000L0 3103.28V3079.72L6920.28 10000H6896.72Z" fill="#9FE6DD"/>
<path d="M6420.56 10000L0 3579.45V3555.88L6444.12 10000H6420.56Z" fill="#9FE6DD"/>
<path d="M5944.38 10000L0 4055.6V4032.04L5967.96 10000H5944.38Z" fill="#9FE6DD"/>
<path d="M5468.22 10000L0 4531.78V4508.22L5491.78 10000H5468.22Z" fill="#9FE6DD"/>
<path d="M4992.06 10000L0 5007.95V4984.38L5015.62 10000H4992.06Z" fill="#9FE6DD"/>
<path d="M4515.88 10000L0 5484.1V5460.54L4539.46 10000H4515.88Z" fill="#9FE6DD"/>
<path d="M4039.72 10000L0 5960.28V5936.72L4063.28 10000H4039.72Z" fill="#9FE6DD"/>
<path d="M3563.56 10000L0 6436.45V6412.88L3587.12 10000H3563.56Z" fill="#9FE6DD"/>
<path d="M3087.38 10000L0 6912.6V6889.04L3110.96 10000H3087.38Z" fill="#9FE6DD"/>
<path d="M2611.22 10000L0 7388.78V7365.2L2634.78 10000H2611.22Z" fill="#9FE6DD"/>
<path d="M2135.06 10000L0 7864.94V7841.38L2158.62 10000H2135.06Z" fill="#9FE6DD"/>
<path d="M1658.9 10000L0 8341.1V8317.54L1682.46 10000H1658.9Z" fill="#9FE6DD"/>
<path d="M1182.72 10000L0 8817.27V8793.7L1206.28 10000H1182.72Z" fill="#9FE6DD"/>
<path d="M706.557 10000L0 9293.44V9269.88L730.121 10000H706.557Z" fill="#9FE6DD"/>
<path d="M230.396 10000L0 9769.6V9746.04L253.96 10000H230.396Z" fill="#9FE6DD"/>
</g>
<defs>
<clipPath id="clip0_2117_608">
<rect width="10000" height="10000" fill="white"/>
</clipPath>
</defs>
</svg>
